# xmcd
#
# Track frame offsets:
#	150
#	14536
#	35446
#	56727
#
# Disc length: 1200 seconds
#
# Revision: 3
# Processed by: cddbd v1.5.2PL0 Copyright (c) Steve Scherf et al.
# Submitted via: audiograbber 1.83.01
#
DISCID=2e04ae04,3604ae04
DTITLE=Sahlene - The Little Voice
DYEAR=2000
DGENRE=
TTITLE0=The Little Voice
TTITLE1=Hush Hush
TTITLE2=The Little Voice (Long 101 Treat)
TTITLE3=The Little Voice (Longer 101 Treat)
EXTD=
EXTT0=
EXTT1=
EXTT2=
EXTT3=
PLAYORDER=
